<svg width="497" height="531" viewBox="0 0 497 531" fill="none" xmlns="http://www.w3.org/2000/svg">
<ellipse cx="248.5" cy="283.5" rx="248.5" ry="247.5" fill="#2E2E2E"/>
<path d="M305.61 464.03C304.07 464.03 301.43 463.7 297.69 463.04C294.17 462.16 290.76 461.17 287.46 460.07C284.38 458.75 282.73 457.43 282.51 456.11C282.51 454.79 283.72 453.91 286.14 453.47C288.78 453.03 291.42 452.81 294.06 452.81C296.92 452.59 298.57 452.48 299.01 452.48C307.15 452.48 316.5 450.94 327.06 447.86C337.62 444.78 348.51 440.49 359.73 434.99C370.95 429.49 381.73 423.11 392.07 415.85C402.41 408.59 411.65 400.67 419.79 392.09C428.15 383.29 434.53 374.27 438.93 365.03C443.33 355.79 444.98 346.55 443.88 337.31C442.56 325.87 439.15 316.63 433.65 309.59C428.37 302.33 421.55 296.72 413.19 292.76C405.05 288.58 396.14 285.61 386.46 283.85C377 282.09 367.43 280.99 357.75 280.55C348.07 280.11 339.05 279.89 330.69 279.89C322.55 279.89 314.19 280.11 305.61 280.55C297.03 280.99 289 282.42 281.52 284.84C279.32 285.5 277.12 286.16 274.92 286.82C272.72 287.48 270.41 287.81 267.99 287.81C267.77 287.81 267.11 287.81 266.01 287.81C264.91 287.59 264.36 287.15 264.36 286.49C263.92 283.41 265.35 280.77 268.65 278.57C271.95 276.37 276.13 274.5 281.19 272.96C286.47 271.42 291.86 270.21 297.36 269.33C303.08 268.45 308.25 267.9 312.87 267.68C317.49 267.24 320.79 267.02 322.77 267.02C333.11 267.02 344 267.57 355.44 268.67C366.88 269.55 378.21 271.53 389.43 274.61C400.65 277.47 410.99 281.65 420.45 287.15C429.91 292.65 437.72 299.91 443.88 308.93C450.04 317.95 453.89 329.17 455.43 342.59C455.65 343.91 455.76 345.23 455.76 346.55C455.76 347.87 455.76 349.08 455.76 350.18C455.76 363.38 452.46 375.81 445.86 387.47C439.48 398.91 430.79 409.36 419.79 418.82C409.01 428.06 397.02 436.09 383.82 442.91C370.62 449.73 357.2 455.01 343.56 458.75C329.92 462.27 317.27 464.03 305.61 464.03ZM264.36 470.96C261.5 470.96 259.08 469.64 257.1 467C255.12 464.58 253.69 461.72 252.81 458.42C251.93 455.12 251.49 452.59 251.49 450.83C251.49 445.55 253.14 437.96 256.44 428.06C259.96 417.94 264.47 406.72 269.97 394.4C275.69 381.86 281.96 369.32 288.78 356.78C295.82 344.02 302.75 332.36 309.57 321.8C316.61 311.02 323.21 302.44 329.37 296.06C335.53 289.46 340.59 286.16 344.55 286.16C346.75 286.16 349.83 287.26 353.79 289.46C357.75 291.66 359.84 293.97 360.06 296.39C360.28 297.27 357.86 300.68 352.8 306.62C347.96 312.34 341.69 319.82 333.99 329.06C326.29 338.08 318.15 348.09 309.57 359.09C301.21 370.09 293.29 381.31 285.81 392.75C278.33 404.19 272.39 415.19 267.99 425.75C263.59 436.09 261.83 445.22 262.71 453.14C262.93 454.46 263.26 455.56 263.7 456.44C264.14 457.32 265.13 457.76 266.67 457.76C269.09 457.76 271.18 457.1 272.94 455.78C274.7 454.24 275.91 453.47 276.57 453.47C277.01 453.47 277.23 453.8 277.23 454.46C277.45 454.9 277.56 455.12 277.56 455.12C278 458.86 276.79 462.49 273.93 466.01C271.29 469.31 268.1 470.96 264.36 470.96Z" fill="#800080"/>
<path d="M210.02 318.61C206.28 318.61 202.76 317.73 199.46 315.97C196.16 314.43 193.08 312.34 190.22 309.7C186.26 305.74 181.64 300.24 176.36 293.2C171.08 286.16 165.69 278.57 160.19 270.43C154.91 262.07 149.85 254.15 145.01 246.67C140.39 238.97 136.65 232.48 133.79 227.2C127.63 229.4 121.03 233.14 113.99 238.42C106.95 243.48 100.35 249.64 94.19 256.9C88.25 263.94 83.41 271.31 79.67 279.01C75.93 286.71 74.28 294.19 74.72 301.45C74.94 302.55 75.27 303.76 75.71 305.08C76.15 306.4 77.14 307.06 78.68 307.06C80 307.06 80.66 308.16 80.66 310.36C80.66 311.24 80.33 312.12 79.67 313C79.23 314.1 78.35 314.65 77.03 314.65C72.19 314.65 68.78 313 66.8 309.7C64.82 306.18 63.83 302.11 63.83 297.49C63.83 290.23 65.48 281.43 68.78 271.09C72.08 260.53 76.37 249.42 81.65 237.76C86.93 225.88 92.54 214.22 98.48 202.78C104.42 191.12 110.03 180.45 115.31 170.77C120.59 161.09 124.99 153.28 128.51 147.34C131.37 142.72 134.12 137.77 136.76 132.49C139.62 126.99 142.7 122.15 146 117.97C147.1 116.43 148.97 115.44 151.61 115C154.25 114.56 156.34 114.34 157.88 114.34C159.64 114.34 161.62 114.78 163.82 115.66C166.02 116.32 167.23 117.86 167.45 120.28C167.45 121.82 167.01 123.47 166.13 125.23C165.47 126.77 164.7 128.2 163.82 129.52C153.92 145.58 143.8 161.53 133.46 177.37C123.34 193.21 114.43 209.82 106.73 227.2C137.75 212.46 167.45 195.74 195.83 177.04C224.43 158.12 252.92 139.31 281.3 120.61C282.62 119.73 283.94 118.96 285.26 118.3C286.8 117.64 288.34 117.31 289.88 117.31C290.98 117.31 291.97 117.64 292.85 118.3C293.73 118.74 294.28 119.51 294.5 120.61C294.72 122.37 291.86 125.67 285.92 130.51C279.98 135.13 272.17 140.63 262.49 147.01C252.81 153.39 242.36 160.1 231.14 167.14C219.92 174.18 208.92 181 198.14 187.6C187.36 193.98 177.9 199.7 169.76 204.76C161.84 209.6 156.34 213.12 153.26 215.32C154.14 218.84 156.01 224.34 158.87 231.82C161.95 239.08 165.69 247.11 170.09 255.91C174.49 264.71 179.22 273.29 184.28 281.65C189.34 289.79 194.29 296.5 199.13 301.78C204.19 307.06 208.7 309.7 212.66 309.7C216.4 309.7 219.26 308.38 221.24 305.74C223.44 302.88 224.98 299.36 225.86 295.18C226.96 291 227.62 286.93 227.84 282.97C228.06 278.79 228.06 275.38 227.84 272.74C227.84 272.3 227.73 271.86 227.51 271.42C227.51 270.98 227.51 270.54 227.51 270.1C227.51 268.56 228.17 267.79 229.49 267.79C231.47 267.79 233.12 269 234.44 271.42C235.98 273.84 237.19 276.48 238.07 279.34C239.17 282.2 239.72 284.4 239.72 285.94C240.16 291.44 238.95 296.72 236.09 301.78C233.45 306.62 229.82 310.58 225.2 313.66C220.8 316.96 215.74 318.61 210.02 318.61Z" fill="white"/>
</svg>
